<svg xmlns="http://www.w3.org/2000/svg" width="512" height="512" viewBox="0 0 512 512" role="img" aria-label="couch and lamp icon">
  <rect x="0" y="0" width="512" height="512" rx="96" fill="#F6F0E8"></rect>

  <g transform="translate(0,8)">
    <g>
      <rect x="338" y="110" width="18" height="238" rx="9" fill="#6B5B4D"></rect>
      <rect x="330" y="344" width="34" height="16" rx="8" fill="#6B5B4D"></rect>
      <path d="M330 128c0-18 14-34 34-34s34 16 34 34v10h-68z" fill="#D9C6A3"></path>
      <path d="M321 138c0-26 20-50 52-50s52 24 52 50v6c0 6-5 11-11 11h-82c-6 0-11-5-11-11z" fill="#E7D6B6"></path>
      <path d="M345 90c8-16 24-26 40-26 5 0 9 4 9 9 0 2-1 4-2 6-4 7-10 12-18 15-6 2-12 2-18 1-6-1-12-3-17-5-3-1-4-5-2-8z" fill="#F0E2C7" opacity="0.85"></path>
    </g>

    <g>
      <rect x="92" y="282" width="332" height="86" rx="26" fill="#3E7F73"></rect>
      <rect x="104" y="206" width="308" height="92" rx="28" fill="#4A978A"></rect>
      <rect x="98" y="248" width="78" height="88" rx="26" fill="#3A776C"></rect>
      <rect x="336" y="248" width="78" height="88" rx="26" fill="#3A776C"></rect>

      <rect x="176" y="222" width="74" height="64" rx="20" fill="#56A99A"></rect>
      <rect x="260" y="222" width="74" height="64" rx="20" fill="#56A99A"></rect>

      <path d="M108 368h300v22c0 10-8 18-18 18H126c-10 0-18-8-18-18z" fill="#2E5F57"></path>

      <rect x="128" y="392" width="22" height="36" rx="10" fill="#6B5B4D"></rect>
      <rect x="362" y="392" width="22" height="36" rx="10" fill="#6B5B4D"></rect>

      <path d="M106 306c0-10 8-18 18-18h266c10 0 18 8 18 18" fill="none" stroke="#2B5B53" stroke-width="10" stroke-linecap="round" opacity="0.35"></path>
      <path d="M178 234h70M262 234h70" fill="none" stroke="#2B5B53" stroke-width="10" stroke-linecap="round" opacity="0.25"></path>
    </g>
  </g>
</svg>
